<?xml version="1.0" encoding="UTF-8"?> <svg xmlns="http://www.w3.org/2000/svg" xmlns:xlink="http://www.w3.org/1999/xlink" version="1.1" id="Laag_1" x="0px" y="0px" viewBox="0 0 473.76 74.77" style="enable-background:new 0 0 473.76 74.77;" xml:space="preserve"> <style type="text/css"> .st0{fill:#FFFFFF;} .st1{fill:#5E4595;} .st2{fill:#57B896;} </style> <g> <path class="st0" d="M48.75,48.65c-0.01,5.87-0.05,11.73-0.02,17.6c0,0.9-0.22,1.11-1.11,1.1c-15.51-0.03-31.01-0.03-46.52,0 c-0.9,0-1.11-0.21-1.11-1.11C0.03,44.53,0.03,22.82,0,1.11C0,0.23,0.2-0.01,1.1,0c5.67,0.05,11.35,0.05,17.03,0 c0.9-0.01,1.11,0.22,1.11,1.11c-0.03,15.32-0.01,30.65-0.05,45.97c0,1.09,0.27,1.35,1.35,1.35c9.31-0.06,18.62-0.05,27.93-0.07 C48.56,48.46,48.66,48.55,48.75,48.65z"></path> <path class="st0" d="M180.6,32.03c3.51,0.72,6.2,2.83,6.68,6.35c0.59,4.32,0.74,8.72-0.37,13.04c-1.04,4.06-3.57,6.67-7.51,8.03 c-1.8,0.62-3.62,0.93-5.51,0.93c-7.19,0-14.39,0-21.58,0c-1.76,0-2.13-0.38-2.13-2.13c0-17.08,0-34.16,0-51.24 c0-1.46,0.38-1.93,1.85-1.94c7.15-0.02,14.31-0.11,21.46,0.04c2.82,0.06,5.62,0.61,8.05,2.33c3.2,2.27,4.72,5.39,5.13,9.22 c0.2,1.9,0.21,3.8,0.19,5.69c-0.02,2.49-0.46,4.86-2.13,6.87C183.65,30.51,182.21,31.23,180.6,32.03z M161.21,43.73 c0,2.07,0.02,4.15-0.01,6.22c-0.01,0.72,0.14,1.11,0.98,1.1c3.44-0.03,6.87,0.02,10.31-0.03c2.31-0.03,3.56-1.04,4.11-3.26 c0.48-1.95,0.1-3.95,0.19-5.92c0.03-0.67,0.08-1.38-0.09-2.01c-0.63-2.37-2.11-3.35-5.03-3.39c-3.04-0.04-6.07,0.01-9.11-0.02 c-0.96-0.01-1.37,0.36-1.36,1.33C161.23,39.74,161.21,41.74,161.21,43.73z M161.21,20.86c0,1.71,0.08,3.43-0.03,5.14 c-0.08,1.14,0.51,1.54,1.4,1.54c3.38,0.02,6.77,0.24,10.12-0.26c1.43-0.22,2.54-1.12,2.93-2.67c0.46-1.8,0.15-3.63,0.19-5.44 c0.1-3.91-1.89-4.59-4.65-4.74c-2.87-0.16-5.75-0.02-8.62-0.05c-0.96-0.01-1.37,0.36-1.35,1.33 C161.23,17.43,161.21,19.14,161.21,20.86z"></path> <path class="st0" d="M128.99,60.01c1.73,2.94,3.42,5.8,5.07,8.68c0.26,0.45,0.56,0.91,0.53,1.52c-0.04,0.89-0.4,1.42-1.32,1.42 c-2.56,0.01-5.12,0.03-7.67,0c-1.64-0.02-2.28-1.36-2.97-2.51c-1.55-2.59-3.05-5.2-4.51-7.84c-0.39-0.7-0.83-0.93-1.59-0.9 c-3.08,0.11-6.1-0.17-8.9-1.61c-3.49-1.79-5.39-4.73-6.18-8.5c-0.24-1.14-0.23-2.27-0.23-3.41c0-9.66-0.01-19.32,0.01-28.97 c0.01-3.66,1.16-6.89,3.91-9.43c2.08-1.92,4.61-2.82,7.36-3.14c4.33-0.52,8.68-0.27,13.01-0.2c3.03,0.05,6.01,0.58,8.59,2.46 c2.63,1.92,4.14,4.46,4.78,7.6c0.23,1.14,0.22,2.27,0.22,3.41c0,9.7,0.02,19.39-0.01,29.09c-0.01,4.73-2.01,8.43-6.05,10.93 C131.88,59.35,130.47,59.7,128.99,60.01z M128.11,32.97c0-4.74,0.01-9.49,0-14.23c0-2.31-1.55-3.85-3.87-3.86 c-2.72-0.01-5.43-0.01-8.15,0c-1.48,0-2.87,0.82-3.27,2.04c-0.31,0.95-0.55,1.94-0.55,2.96c0.01,8.49,0.01,16.99,0,25.48 c0,1.03,0.21,2.01,0.5,2.97c0.37,1.23,1.33,2.03,2.52,2.19c3.18,0.43,6.38,0.47,9.57,0.04c2.06-0.28,3.24-1.63,3.24-3.72 C128.11,42.22,128.11,37.59,128.11,32.97z"></path> <path class="st0" d="M387.63,54.06c-1.31,2.61-3.65,3.66-6.14,4.1c-3.38,0.61-6.8,0.5-10.18-0.4c-4.3-1.14-6.8-3.97-7.89-8.14 c-0.64-2.45-0.7-4.97-0.72-7.48c-0.03-3.39-0.07-6.78,0.01-10.17c0.08-3.07,0.19-6.17,1.66-8.99c1.94-3.72,5.13-5.75,9.18-6.14 c7.31-0.7,14.66-0.15,21.99-0.27c3.35-0.06,3.36,0,3.36,3.33c0,13.81,0.06,27.61-0.04,41.42c-0.03,3.77-1.03,7.33-4.05,9.98 c-1.88,1.65-4.07,2.75-6.56,2.97c-6.88,0.6-13.78,0.12-20.68,0.25c-0.84,0.02-1.29-0.46-1.29-1.3c-0.01-2.23-0.03-4.47,0.01-6.7 c0.02-1.12,0.59-1.56,1.88-1.56c4.95-0.01,9.91,0,14.86,0c2.83,0,4.81-1.48,4.62-4.58C387.53,58.26,387.63,56.16,387.63,54.06z M387.63,35.59c0-2.75-0.03-5.5,0.02-8.25c0.02-0.88-0.31-1.21-1.13-1.21c-2.87,0.01-5.75-0.06-8.62,0.02 c-2.31,0.07-3.92,1.73-3.93,3.92c-0.02,4.9-0.03,9.81,0,14.71c0.01,1.96,1.03,3.14,2.93,3.65c1.68,0.45,3.39,0.12,5.08,0.21 c3.61,0.2,5.76-2.47,5.66-5.63C387.57,40.53,387.63,38.06,387.63,35.59z"></path> <path class="st1" d="M48.75,48.65c-0.09-0.09-0.19-0.19-0.28-0.28c0-9.38-0.02-18.75,0.03-28.13c0.01-1.08-0.31-1.32-1.35-1.32 c-6.51,0.05-13.03,0.01-19.54,0.04c-0.91,0-1.24-0.21-1.23-1.19c0.05-5.55,0.04-11.09,0-16.64C26.38,0.23,26.66,0,27.54,0.01 C40.53,0.03,53.52,0.04,66.5,0c0.99,0,1.18,0.34,1.18,1.24c-0.02,15.4-0.03,30.8,0.01,46.2c0,1.05-0.37,1.23-1.31,1.22 C60.5,48.62,54.63,48.64,48.75,48.65z"></path> <path class="st0" d="M220.93,55.95c-0.76,1.06-1.55,2.04-2.59,2.72c-1.5,0.99-3.22,1.59-4.99,1.67c-2.91,0.13-5.82,0.14-8.69-0.66 c-4.47-1.24-7.99-5.19-8.4-9.61c-0.67-7.27-0.45-14.58-0.17-21.85c0.24-6.35,4.07-10.37,10.64-11.46c1.43-0.24,2.84-0.2,4.26-0.2 c6.36-0.02,12.71-0.01,19.07-0.01c1.43,0,1.9,0.48,1.9,1.91c0,13.33,0,26.66,0,40c0,1.44-0.47,1.91-1.9,1.92 c-2.44,0.01-4.88,0.01-7.32,0c-1.36-0.01-1.81-0.48-1.82-1.85C220.93,57.67,220.93,56.81,220.93,55.95z M220.93,35.92 c0-2.75,0-5.5,0-8.26c0-1.02-0.33-1.59-1.52-1.56c-2.63,0.07-5.28-0.1-7.91,0.05c-3.29,0.2-4.32,1.11-4.44,4.21 c-0.2,5.38-0.09,10.77-0.04,16.15c0.02,2.44,1.11,3.51,3.53,4.07c1.62,0.38,3.25,0.27,4.85,0.17c2.28-0.15,4.26-1.03,4.99-3.48 c0.32-1.08,0.51-2.2,0.52-3.33C220.94,41.27,220.93,38.59,220.93,35.92z"></path> <path class="st0" d="M257.04,49.72c1.66-7.36,3.25-14.61,4.93-21.84c0.73-3.16,1.54-6.31,2.18-9.5c0.25-1.25,1.05-1.83,2.32-1.83 c2.52,0,5.04-0.01,7.55,0c1.2,0,1.76,0.77,1.48,1.91c-2.36,9.53-4.66,19.07-7.1,28.57c-1.46,5.68-2.52,11.48-4.55,17 c-1.42,3.87-3.71,7.17-7.45,9.13c-1.88,0.98-3.97,1.58-6.15,1.58c-2.44,0-4.88-0.01-7.31,0.01c-1.26,0.01-1.75-0.37-1.82-1.74 c-0.11-2.03-0.12-4.07,0-6.1c0.08-1.42,0.59-1.79,1.93-1.75c2.05,0.07,4.08-0.17,6.12-0.45c2.79-0.4,4.21-2.23,5.1-4.63 c0.78-2.08,0.74-2.09-1.46-2.09c-0.8,0-1.6-0.03-2.4,0.01c-1.25,0.07-1.83-0.62-2.13-1.72c-1.98-7.38-3.98-14.75-5.95-22.14 c-1.38-5.18-2.73-10.38-4.08-15.57c-0.37-1.44,0.09-2.01,1.56-2.01c2.52,0,5.04,0.01,7.55-0.01c1.21-0.01,1.85,0.54,2.13,1.72 c1.24,5.31,2.56,10.59,3.77,15.9c1.1,4.82,2.12,9.67,3.4,14.45C256.75,48.94,256.5,49.33,257.04,49.72z"></path> <path class="st0" d="M355.25,37.81c0,3.47-0.01,6.26,0,9.06c0.01,2.86-0.65,5.58-2.19,7.98c-1.76,2.74-4.37,4.38-7.55,5.04 c-4.6,0.95-9.27,0.5-13.9,0.43c-3.4-0.05-6.6-1.2-9.04-3.74c-1.97-2.05-3.03-4.59-3.28-7.41c-0.57-6.44-0.26-12.89-0.2-19.33 c0.03-3.71,1.02-7.24,3.9-9.94c1.91-1.79,4.21-2.76,6.76-3.09c4.44-0.59,8.92-0.37,13.36-0.19c4.3,0.18,7.97,2.01,10.3,5.88 c0.9,1.5,1.38,3.17,1.62,4.91C355.53,31.1,355.08,34.8,355.25,37.81z M344.22,38.47c0-2.75,0.01-5.5,0-8.26 c-0.02-2.78-1.47-3.96-4.01-4.07c-2.03-0.09-4.07-0.04-6.11-0.01c-1.49,0.02-2.83,0.48-3.44,1.95c-0.38,0.92-0.59,1.93-0.59,2.95 c0.01,4.75,0.03,9.49-0.02,14.24c-0.01,0.92,0.18,1.81,0.32,2.68c0.23,1.41,1.13,2.31,2.62,2.61c2.49,0.49,5,0.32,7.48,0.17 c2.71-0.17,3.83-1.85,3.77-4.25C344.17,43.81,344.22,41.14,344.22,38.47z"></path> <path class="st0" d="M282.34,32.78c0-8.46,0-16.92,0-25.38c0-1.72,0.62-2.35,2.33-2.35c2.16,0,4.32,0,6.47,0 c1.86,0,2.23,0.37,2.23,2.16c0,13.77,0,27.53,0,41.3c0,2.1,0.41,2.08,2.09,2.07c5.47-0.05,10.95-0.02,16.42-0.02 c2,0,2.36,0.36,2.36,2.3c0,1.92,0,3.83,0,5.75c0,1.26-0.48,1.76-1.77,1.77c-3.04,0.01-6.07,0-9.11,0c-6.31,0-12.63,0-18.94,0 c-1.65,0-2.07-0.44-2.07-2.1C282.34,49.77,282.34,41.28,282.34,32.78z"></path> <path class="st0" d="M428.41,39.16c0-3.72,0.01-6.71,0-9.71c-0.01-3.48,1-6.64,3.39-9.17c1.88-1.99,4.35-3.18,7.08-3.47 c5.64-0.62,11.31-0.14,16.97-0.26c0.83-0.02,1.32,0.5,1.33,1.32c0.03,2.35,0.01,4.71,0.01,7.07c0,1.16-0.82,1.18-1.64,1.18 c-3.76,0.01-7.52-0.07-11.27,0.02c-3.48,0.08-4.76,1.33-4.82,4.83c-0.09,5.07-0.06,10.14,0,15.21c0.02,1.85,0.61,3.49,2.57,4.18 c0.84,0.29,1.73,0.44,2.63,0.44c3.6-0.01,7.2-0.01,10.79,0c1.32,0,1.74,0.43,1.74,1.78c0,2.04,0.01,4.07,0,6.11 c0,1.36-0.31,1.69-1.63,1.69c-4.84,0.01-9.68,0.19-14.51-0.04c-6.26-0.31-11.3-3.5-12.4-10.58 C428.07,45.99,428.62,42.21,428.41,39.16z"></path> <path class="st0" d="M419.54,38.41c0,6.7,0,13.4,0,20.1c0,1.59-0.26,1.86-1.83,1.86c-2.44,0-4.87,0.01-7.31,0 c-1.42,0-1.89-0.48-1.89-1.92c0-13.32,0-26.65,0-39.97c0-1.52,0.44-1.94,1.97-1.94c2.48,0,4.95,0,7.43,0 c1.14,0,1.63,0.49,1.63,1.64C419.54,24.93,419.54,31.67,419.54,38.41z"></path> <path class="st2" d="M65.63,55.83c2.8,0,5.59,0.03,8.39-0.02c0.78-0.01,1.11,0.11,1.1,1.01c-0.04,5.66-0.03,11.33-0.01,16.99 c0,0.72-0.16,0.95-0.92,0.95c-5.79-0.03-11.59-0.03-17.38,0c-0.77,0-0.92-0.25-0.92-0.95c0.03-5.66,0.03-11.33,0-16.99 c0-0.76,0.18-1.02,0.98-1.01C59.79,55.86,62.71,55.83,65.63,55.83z"></path> <path class="st0" d="M413.9,11.04c-1.32,0-2.64,0.01-3.95,0c-0.95-0.01-1.44-0.51-1.45-1.47c0-2.67,0-5.34,0-8.01 c0-1.02,0.47-1.54,1.5-1.54c2.68,0,5.35,0,8.03,0c1.03,0,1.51,0.51,1.51,1.53c-0.01,2.63-0.01,5.26,0,7.89 c0.01,1.07-0.48,1.61-1.57,1.6C416.62,11.03,415.26,11.04,413.9,11.04z"></path> <path class="st2" d="M468.87,60.38c-1.36,0-2.72-0.03-4.07,0.01c-0.65,0.02-0.91-0.13-0.9-0.85c0.04-2.63,0.04-5.26,0-7.89 c-0.01-0.69,0.2-0.88,0.88-0.87c2.71,0.03,5.43,0.03,8.15,0c0.59-0.01,0.85,0.12,0.84,0.78c-0.03,2.67-0.03,5.34,0,8.01 c0.01,0.64-0.19,0.82-0.82,0.81C471.58,60.35,470.23,60.38,468.87,60.38z"></path> </g> </svg> 