<?xml version="1.0" encoding="UTF-8" standalone="no"?>
<!-- Generator: Adobe Illustrator 27.7.0, SVG Export Plug-In . SVG Version: 6.00 Build 0)  -->
<svg
  version="1.1"
  x="0px"
  y="0px"
  viewBox="0 0 523.3 462.4"
  xmlns="http://www.w3.org/2000/svg">
  <g>
    <path
      style="fill:var(--color-a)"
      d="M 288.7,57.9 257.1,3.1 c -1.7,-2.9 -5.4,-3.9 -8.4,-2.2 L 3.1,142.6 c -2.9,1.7 -3.9,5.4 -2.2,8.4 l 31.7,54.9 c 1.7,2.9 5.4,3.9 8.3,2.2 L 286.5,66.3 c 2.9,-1.7 3.9,-5.5 2.2,-8.4 z"
      />
    <path
      style="fill:var(--color-a)"
      d="M 279,192.9 247.4,138 c -1.7,-2.9 -5.4,-3.9 -8.4,-2.2 L 59.1,239.7 c -2.9,1.7 -3.9,5.4 -2.2,8.4 L 88.6,303 c 1.7,2.9 5.4,3.9 8.4,2.2 L 276.9,201.3 c 2.8,-1.7 3.8,-5.5 2.1,-8.4 z"
      />
    <path
      style="fill:var(--color-a)"
      d="m 178.5,307.2 c -1.7,-2.9 -5.4,-3.9 -8.4,-2.2 l -55,31.8 c -2.9,1.7 -3.9,5.4 -2.2,8.4 l 31.8,55 c 1.7,2.9 5.4,3.9 8.4,2.2 l 55,-31.8 c 2.9,-1.7 3.9,-5.4 2.2,-8.4 z"
      />
    <path
      style="fill:var(--color-b)"
      d="m 490.8,256.5 c -1.7,-2.9 -5.4,-3.9 -8.4,-2.2 L 236.8,396.1 c -2.9,1.7 -3.9,5.4 -2.2,8.4 l 31.7,54.9 c 1.7,2.9 5.4,3.9 8.4,2.2 L 520.4,319.8 c 2.9,-1.7 3.9,-5.4 2.2,-8.4 z"
      />
    <path
      style="fill:var(--color-b)"
      d="m 244.2,269.5 31.7,54.9 c 1.7,2.9 5.4,3.9 8.4,2.2 L 464.2,222.7 c 2.9,-1.7 3.9,-5.4 2.2,-8.4 l -31.7,-54.9 c -1.7,-2.9 -5.4,-3.9 -8.4,-2.2 L 246.5,261.1 c -3,1.7 -4,5.4 -2.3,8.4 z"
      />
    <path
      style="fill:var(--color-b)"
      d="m 344.8,155.2 c 1.7,2.9 5.4,3.9 8.3,2.2 l 55,-31.8 c 2.9,-1.7 3.9,-5.4 2.2,-8.4 l -31.8,-55 c -1.7,-2.9 -5.4,-3.9 -8.4,-2.2 l -55,31.8 c -2.9,1.7 -3.9,5.4 -2.2,8.4 z"
      />
  </g>
</svg>
